<?xml version="1.0" encoding="UTF-8"?>
<!DOCTYPE svg PUBLIC "-//W3C//DTD SVG 1.1//EN" "http://www.w3.org/Graphics/SVG/1.1/DTD/svg11.dtd">
<!-- Creator: CorelDRAW 2017 -->
<svg xmlns="http://www.w3.org/2000/svg" xml:space="preserve" width="1000px" height="500px" version="1.1" style="shape-rendering:geometricPrecision; text-rendering:geometricPrecision; image-rendering:optimizeQuality; fill-rule:evenodd; clip-rule:evenodd"
viewBox="0 0 1000 500"
 xmlns:xlink="http://www.w3.org/1999/xlink">
 <defs>
  <style type="text/css">
   <![CDATA[
    .fil0 {fill:#C4000A}
   ]]>
  </style>
 </defs>
 <g id="Layer_x0020_1">
  <metadata id="CorelCorpID_0Corel-Layer"/>
  <g id="_2126075166000">
   <g>
    <g>
     <path class="fil0" d="M76.59 48.91c-0.64,0 -1.17,0.53 -1.17,1.17 0,0.82 -0.66,1.49 -1.48,1.49 -0.82,0 -1.49,-0.67 -1.49,-1.49 0,-0.64 -0.52,-1.17 -1.17,-1.17 -0.65,0 -1.17,0.53 -1.17,1.17 0,2.11 1.72,3.83 3.83,3.83 2.11,0 3.82,-1.72 3.82,-3.83 0,-0.64 -0.52,-1.17 -1.17,-1.17z"/>
    </g>
   </g>
   <g>
    <g>
     <path class="fil0" d="M87.57 49.11l-3.29 -1.06c-0.42,-0.14 -0.75,-0.47 -0.89,-0.9 -0.69,-2.21 -1.74,-4.28 -3.11,-6.16 -0.63,-0.85 -1.32,-1.67 -2.08,-2.45 0.49,-2.13 0.75,-4.54 0.72,-6.63 -0.05,-2.98 -0.65,-4.73 -1.83,-5.34 -0.63,-0.34 -2.56,-1.34 -12.99,3.43 -0.25,0.12 -0.48,0.26 -0.69,0.41 -0.71,-0.18 -1.43,-0.36 -2.15,-0.52 -0.09,-0.02 -0.18,-0.03 -0.27,-0.05 0.85,-1.85 1.34,-3.85 1.44,-5.93 0.03,-0.64 -0.48,-1.19 -1.12,-1.22 -0.64,-0.03 -1.19,0.47 -1.22,1.12 -0.15,3.4 -1.57,6.61 -3.98,9.02 -1.44,1.44 -3.13,2.49 -4.93,3.15 -3.12,-0.44 -6.29,-0.44 -9.42,0 -1.79,-0.66 -3.48,-1.71 -4.92,-3.15 -2.58,-2.57 -3.99,-5.99 -3.99,-9.63 0,-3.64 1.41,-7.07 3.99,-9.64 2.57,-2.57 5.99,-3.99 9.63,-3.99 3.64,0 7.07,1.42 9.64,3.99 1.04,1.03 1.89,2.21 2.54,3.51 0.29,0.57 1,0.81 1.57,0.52 0.58,-0.29 0.81,-1 0.52,-1.58 -0.76,-1.51 -1.76,-2.89 -2.97,-4.11 -3.02,-3.01 -7.03,-4.67 -11.3,-4.67 -4.26,0 -8.27,1.66 -11.29,4.67 -3.01,3.02 -4.67,7.03 -4.67,11.3 0,4.26 1.66,8.27 4.67,11.29 0.87,0.87 1.82,1.62 2.82,2.24 0,0 0,0 0,0 -0.73,0.19 -1.45,0.4 -2.16,0.64 -0.61,0.21 -0.95,0.87 -0.74,1.48 0.2,0.62 0.87,0.95 1.48,0.74 6.38,-2.13 13.41,-2.13 19.79,0 0.12,0.04 0.25,0.06 0.37,0.06 0.49,0 0.95,-0.31 1.11,-0.8 0.2,-0.61 -0.13,-1.27 -0.74,-1.48 -0.71,-0.24 -1.44,-0.45 -2.16,-0.64 0,0 0,0 0,0 1,-0.62 1.94,-1.37 2.82,-2.24 0.77,-0.77 1.44,-1.61 2.03,-2.51 0.33,0.07 0.65,0.13 0.96,0.2 0.42,0.09 0.84,0.19 1.26,0.29 -0.02,0.05 -0.03,0.1 -0.04,0.16 -0.57,2.7 -0.54,5.1 0.11,7.11 0.58,1.81 1.62,3.28 3.1,4.36 1.75,1.28 3.85,1.83 5.76,1.83 1.44,0 2.76,-0.31 3.73,-0.86 1.1,-0.62 2.02,-1.94 2.75,-3.91 0.34,0.4 0.66,0.8 0.96,1.21 1.22,1.68 2.15,3.52 2.77,5.48 0.36,1.16 1.26,2.06 2.41,2.43l3.29 1.05c0.86,0.28 1.45,1.08 1.45,1.98l0 5.46c0,0.91 -0.59,1.71 -1.45,1.98l-5.3 1.7c-0.85,0.27 -1.57,0.86 -2.03,1.64 -2.08,3.61 -5.36,6.59 -9.74,8.86 -0.5,0.27 -0.85,0.74 -0.96,1.3l-1.7 8.99c-0.05,0.25 -0.26,0.43 -0.52,0.43l-5.52 0c-0.25,0 -0.47,-0.18 -0.52,-0.43l-0.94 -4.97c-0.18,-0.98 -1.1,-1.63 -2.09,-1.48 -2.38,0.36 -4.83,0.55 -7.29,0.55 -1.82,0 -3.63,-0.11 -5.36,-0.31 -0.96,-0.11 -1.85,0.54 -2.03,1.49l-0.89 4.72c-0.05,0.25 -0.26,0.43 -0.52,0.43l-5.52 0c-0.25,0 -0.47,-0.18 -0.52,-0.43l-1.64 -8.5c-0.1,-0.55 -0.44,-1.01 -0.94,-1.28 -7.46,-3.98 -11.41,-10.64 -11.41,-19.25 0,-4.35 0.95,-8.2 2.83,-11.43 1.75,-3.02 4.31,-5.52 7.6,-7.43 0.56,-0.32 0.75,-1.04 0.43,-1.6 -0.32,-0.56 -1.04,-0.75 -1.6,-0.42 -6.39,3.69 -10.24,9.39 -11.3,16.63l0 0c-0.11,-0.01 -0.22,-0.02 -0.34,-0.03 0.02,-0.78 -0.12,-1.57 -0.42,-2.33 -0.68,-1.69 -2.08,-2.91 -3.56,-3.11 -1.16,-0.15 -2.27,0.34 -3.04,1.36 -1.12,1.47 -0.94,2.64 -0.59,3.36 0.59,1.22 2.11,2.07 4.62,2.61 -0.07,0.11 -0.14,0.21 -0.23,0.32 -1.48,1.86 -3.23,2.27 -4.37,2.31 -0.66,0.02 -1.2,0.56 -1.2,1.22l0 0.01c0,0.65 0.52,1.19 1.18,1.22 0.08,0 0.17,0.01 0.26,0.01 1.44,0 3.75,-0.53 5.96,-3.32 0.35,-0.43 0.64,-0.9 0.86,-1.37 0.22,0.02 0.43,0.04 0.63,0.06 0,0 0,0 0,0 -0.04,0.63 -0.06,1.28 -0.06,1.93 0,4.87 1.16,9.22 3.45,12.91 2.11,3.41 5.14,6.2 8.99,8.3l1.59 8.26c0.26,1.35 1.44,2.33 2.82,2.33l5.52 0c1.38,0 2.56,-0.98 2.82,-2.33l0.81 -4.27c1.68,0.18 3.41,0.26 5.17,0.26 2.42,0 4.82,-0.16 7.17,-0.49l0.85 4.5c0.26,1.35 1.44,2.33 2.82,2.33l5.52 0c1.38,0 2.56,-0.98 2.82,-2.33l1.65 -8.76c4.68,-2.47 8.2,-5.72 10.48,-9.65 0.16,-0.29 0.41,-0.5 0.71,-0.59l5.3 -1.7c1.84,-0.59 3.07,-2.28 3.07,-4.21l0 -5.46c0,-1.93 -1.23,-3.62 -3.07,-4.2zm-11.17 -13.91c-0.45,3.85 -1.66,7.14 -2.87,7.83 -1.38,0.78 -4.57,0.94 -6.96,-0.81 -2.39,-1.76 -3.19,-4.9 -2.3,-9.11 0,0 0,0 0,0 0.09,-0.42 0.39,-0.79 0.8,-0.98 5.86,-2.68 9.23,-3.56 10.49,-3.56 0.19,0 0.33,0.02 0.42,0.06 0.38,0.4 0.87,2.68 0.42,6.57zm-62.86 12.99c-0.12,-0.25 0.16,-0.69 0.35,-0.93 0.28,-0.38 0.55,-0.46 0.75,-0.46 0.04,0 0.08,0.01 0.11,0.01 0.54,0.08 1.3,0.67 1.69,1.66 0.1,0.23 0.22,0.62 0.25,1.1 -1.62,-0.33 -2.88,-0.82 -3.15,-1.38z"/>
    </g>
   </g>
   <g>
    <g>
     <path class="fil0" d="M47.61 21.86l0 -4.19c1.44,0.1 1.98,0.76 2.47,0.76 0.62,0 0.91,-0.78 0.91,-1.17 0,-1.02 -1.98,-1.45 -3.38,-1.49l0 -0.56c0,-0.24 -0.31,-0.47 -0.62,-0.47 -0.35,0 -0.6,0.23 -0.6,0.47l0 0.6c-1.96,0.21 -3.92,1.24 -3.92,3.84 0,2.64 2.07,3.38 3.92,4.04l0 4.85c-2.1,-0.17 -2.66,-1.61 -3.34,-1.61 -0.51,0 -0.95,0.68 -0.95,1.17 0,1.02 1.74,2.4 4.29,2.44l0 0 0 0.64c0,0.24 0.25,0.47 0.6,0.47 0.31,0 0.62,-0.23 0.62,-0.47l0 -0.7c2.23,-0.31 3.75,-1.72 3.75,-4.25 0,-2.81 -1.96,-3.71 -3.75,-4.37zm-1.09 -0.4c-1.1,-0.41 -1.98,-0.84 -1.98,-2.02 0,-1.07 0.82,-1.59 1.98,-1.73l0 3.75zm0.97 7.04l0 -4.36c1.01,0.44 1.81,1.02 1.81,2.31 0,1.18 -0.7,1.84 -1.81,2.05z"/>
    </g>
   </g>
   <g>
   </g>
   <g>
   </g>
   <g>
   </g>
   <g>
   </g>
   <g>
   </g>
   <g>
   </g>
   <g>
   </g>
   <g>
   </g>
   <g>
   </g>
   <g>
   </g>
   <g>
   </g>
   <g>
   </g>
   <g>
   </g>
   <g>
   </g>
   <g>
   </g>
  </g>
  <g id="_2126075173776">
   <g>
    <g>
     <path class="fil0" d="M390.66 51.33c-1.79,-4.17 -4.47,-8.51 -7.96,-12.89 -0.39,-0.5 -1.11,-0.58 -1.61,-0.19 -0.49,0.4 -0.58,1.12 -0.18,1.62 3.36,4.22 5.93,8.38 7.64,12.36 2.08,4.82 2.88,9.4 2.41,13.62 -0.49,4.36 -2.42,8.04 -5.73,10.94 -2.71,2.37 -6.34,4.25 -10.8,5.58 -7.72,2.3 -15.29,2.15 -15.36,2.15 -0.02,0 -0.04,0 -0.06,0 -0.07,0 -7.64,0.15 -15.36,-2.15 -4.46,-1.33 -8.09,-3.21 -10.8,-5.58 -3.31,-2.9 -5.24,-6.58 -5.73,-10.94 -0.76,-6.73 1.72,-14.26 7.36,-22.38 4.27,-6.13 9.46,-11.26 12.76,-14.25l23.6 0c1.48,1.34 3.39,3.15 5.41,5.3 0.44,0.46 1.16,0.48 1.63,0.04 0.46,-0.43 0.48,-1.16 0.04,-1.62 -1.6,-1.7 -3.13,-3.19 -4.45,-4.42 0.89,-0.65 1.46,-1.7 1.46,-2.88 0,-1.97 -1.6,-3.58 -3.57,-3.58l-0.33 0c1.29,-1.89 2.97,-4.49 4.21,-6.93 1.71,-3.36 2.21,-5.61 1.58,-7.07 -0.38,-0.87 -1.16,-1.44 -2.19,-1.59 -1.54,-0.23 -3.56,0.39 -6.13,1.17 -2.89,0.88 -6.17,1.88 -9.46,1.88 -3.29,0 -6.57,-1 -9.46,-1.88 -2.57,-0.78 -4.59,-1.4 -6.13,-1.17 -1.03,0.15 -1.81,0.72 -2.19,1.59 -0.63,1.46 -0.13,3.71 1.58,7.07 1.24,2.44 2.92,5.04 4.21,6.93l-0.33 0c-1.97,0 -3.57,1.61 -3.57,3.58 0,1.18 0.57,2.23 1.46,2.88 -7.95,7.41 -21.48,22.44 -19.77,37.59 1,8.85 7.29,15.23 18.21,18.47 7.89,2.35 15.39,2.24 15.99,2.23 0.07,0 0.23,0 0.47,0 1.85,0 8.53,-0.15 15.52,-2.23 10.92,-3.24 17.21,-9.62 18.21,-18.47 0.52,-4.62 -0.35,-9.59 -2.58,-14.78zm-47.29 -42.36c0.03,-0.07 0.07,-0.18 0.42,-0.23 1.02,-0.15 3.01,0.45 5.12,1.1 2.9,0.88 6.5,1.97 10.13,1.97 3.63,0 7.23,-1.09 10.13,-1.97 2.11,-0.65 4.1,-1.25 5.12,-1.1 0.35,0.05 0.39,0.16 0.42,0.23 0.1,0.24 0.81,2.57 -5.88,12.24 -0.19,0.27 -0.35,0.56 -0.48,0.85l-18.62 0c-0.13,-0.29 -0.29,-0.58 -0.48,-0.85 -6.69,-9.67 -5.98,-12 -5.88,-12.24zm3.35 15.39l24.64 0c0.7,0 1.28,0.57 1.28,1.28 0,0.71 -0.58,1.28 -1.28,1.28l-24.64 0c-0.7,0 -1.28,-0.57 -1.28,-1.28 0,-0.71 0.58,-1.28 1.28,-1.28z"/>
    </g>
   </g>
   <g>
    <g>
     <path class="fil0" d="M372.23 43.15c-3.52,-3.52 -8.21,-5.46 -13.19,-5.46 -4.98,0 -9.67,1.94 -13.19,5.46 -2.58,2.58 -4.33,5.82 -5.07,9.37 -0.13,0.62 0.27,1.22 0.89,1.35 0.62,0.13 1.23,-0.27 1.36,-0.89 0.65,-3.11 2.18,-5.95 4.44,-8.2 6.38,-6.38 16.76,-6.38 23.14,0 6.38,6.37 6.38,16.75 0,23.13 -6.38,6.38 -16.76,6.38 -23.14,0 -2.2,-2.2 -3.72,-4.97 -4.4,-7.99 -0.14,-0.62 -0.75,-1.01 -1.37,-0.87 -0.62,0.14 -1,0.75 -0.87,1.37 0.77,3.45 2.51,6.6 5.02,9.12 3.64,3.63 8.41,5.45 13.19,5.45 4.78,0 9.55,-1.82 13.19,-5.45 7.27,-7.28 7.27,-19.11 0,-26.39z"/>
    </g>
   </g>
   <g>
    <g>
     <path class="fil0" d="M360.26 55.42l-0.1 -0.04 0 -6.39 0.17 0.02c1.32,0.09 2.13,0.5 2.73,0.79 0.35,0.18 0.62,0.32 0.87,0.32 0.76,0 1.16,-1.02 1.16,-1.56 0,-0.74 -0.86,-1.2 -1.59,-1.46 -0.86,-0.31 -2.05,-0.51 -3.19,-0.55l-0.15 0 0 -0.97c0,-0.26 -0.38,-0.53 -0.74,-0.53 -0.45,0 -0.72,0.28 -0.72,0.53l0 1.02 -0.14 0.01c-1.68,0.18 -5.57,1.06 -5.57,5.44 0,3.75 2.98,4.81 5.61,5.75l0.1 0.03 0 7.35 -0.17 -0.01c-1.97,-0.16 -3.03,-1.05 -3.8,-1.71 -0.41,-0.35 -0.75,-0.64 -1.06,-0.64 -0.63,0 -1.23,0.88 -1.23,1.56 0,1.34 2.38,3.33 6.11,3.39l0.15 0.01 0 1.08c0,0.26 0.27,0.54 0.72,0.54 0.36,0 0.74,-0.27 0.74,-0.54l0 -1.16 0.14 -0.02c3.39,-0.47 5.33,-2.67 5.33,-6.04 0,-3.92 -2.65,-5.22 -5.37,-6.22zm-1.38 -0.5l-0.21 -0.08c-1.64,-0.61 -2.99,-1.27 -2.99,-3.09 0,-1.51 1.05,-2.44 3.02,-2.68l0.18 -0.02 0 5.87zm1.29 10.19l-0.19 0.03 0 0 0 -6.77 0.22 0.09c1.42,0.61 2.74,1.46 2.74,3.51 0,1.69 -0.98,2.81 -2.77,3.14z"/>
    </g>
   </g>
   <g>
   </g>
   <g>
   </g>
   <g>
   </g>
   <g>
   </g>
   <g>
   </g>
   <g>
   </g>
   <g>
   </g>
   <g>
   </g>
   <g>
   </g>
   <g>
   </g>
   <g>
   </g>
   <g>
   </g>
   <g>
   </g>
   <g>
   </g>
   <g>
   </g>
  </g>
  <g id="_2126075173904">
   <g>
    <g>
     <path class="fil0" d="M241.76 53.08l-1.13 0 0 -10.16c0,-1.61 -0.8,-3.03 -2.03,-3.9l0 -1.38c0,-2 -1.63,-3.64 -3.63,-3.64l-0.85 0 3.23 -4.72c1.08,-1.59 0.66,-3.76 -0.92,-4.84l-21.86 -14.89c-0.77,-0.53 -1.69,-0.72 -2.61,-0.55 -0.91,0.17 -1.7,0.69 -2.22,1.46l-18.87 27.69 -5.25 0 1.26 -12.82c0.02,-0.15 0.11,-0.28 0.24,-0.32 1.63,-0.62 3.05,-1.77 3.98,-3.24 0.08,-0.12 0.22,-0.18 0.36,-0.17l8.24 0.82c0.59,0.05 1.11,-0.38 1.17,-0.97 0.06,-0.59 -0.37,-1.11 -0.96,-1.17l-8.24 -0.81c-0.95,-0.1 -1.86,0.34 -2.38,1.15 -0.69,1.08 -1.72,1.92 -2.92,2.38 -0.91,0.34 -1.53,1.15 -1.62,2.11l-1.29 13.04 -1.37 0 2 -20.28c0.07,-0.73 0.73,-1.27 1.46,-1.2l16.64 1.65c0.59,0.05 1.12,-0.38 1.17,-0.97 0.06,-0.59 -0.37,-1.11 -0.96,-1.17l-16.64 -1.64c-1.91,-0.19 -3.62,1.21 -3.81,3.12l-1.61 16.34 -2.75 0c-2.01,0 -3.64,1.64 -3.64,3.64l0 0.95c-1.64,0.75 -2.78,2.41 -2.78,4.33l0 36.61c0,2.63 2.14,4.77 4.77,4.77l59.91 0c2.64,0 4.78,-2.14 4.78,-4.77l0 -10.16 1.13 0c1.33,0 2.41,-1.08 2.41,-2.42l0 -11.46c0,-1.33 -1.08,-2.41 -2.41,-2.41zm-6.79 -16.93l0 0c0.82,0 1.49,0.67 1.49,1.49l0 0.55c-0.2,-0.03 -0.4,-0.04 -0.61,-0.04l-4.55 0 1.36 -2 2.31 0zm-23.46 -24.48c0.2,-0.29 0.5,-0.49 0.85,-0.56 0.09,-0.01 0.17,-0.02 0.25,-0.02 0.27,0 0.53,0.08 0.75,0.23l21.86 14.9c0.61,0.41 0.76,1.24 0.35,1.85l-6.87 10.08 -1.65 0 3.37 -4.94c0.55,-0.81 0.59,-1.83 0.12,-2.67 -0.63,-1.11 -0.89,-2.43 -0.72,-3.7 0.12,-0.95 -0.3,-1.87 -1.09,-2.41l-11.33 -7.72c-0.8,-0.55 -1.81,-0.6 -2.64,-0.13 -1.12,0.62 -2.44,0.86 -3.71,0.68 -0.94,-0.13 -1.9,0.29 -2.44,1.08l-13.5 19.81 -1.64 0 18.04 -26.48zm0.47 18.23c-4.67,0 -8.51,3.65 -8.82,8.25l-5.45 0 12.68 -18.6c0,0 0,0 0,0 0.07,-0.1 0.19,-0.17 0.31,-0.17 0.02,0 0.03,0.01 0.05,0.01 1.73,0.24 3.52,-0.09 5.05,-0.93 0.12,-0.07 0.27,-0.06 0.39,0.02l11.33 7.72c0.12,0.08 0.19,0.22 0.17,0.36 -0.23,1.73 0.12,3.52 0.98,5.04 0.06,0.12 0.06,0.28 -0.02,0.4l-4.2 6.15 -3.64 0c-0.31,-4.6 -4.15,-8.25 -8.83,-8.25zm6.68 8.25l-13.35 0c0.31,-3.41 3.18,-6.1 6.67,-6.1 3.5,0 6.37,2.69 6.68,6.1zm-42.56 -0.51c0,-0.82 0.67,-1.49 1.49,-1.49l2.54 0 -0.2 2 -3.83 0 0 -0.51zm-2.78 5.28c0,-1.45 1.17,-2.62 2.62,-2.62l59.91 0c1.45,0 2.63,1.17 2.63,2.62l0 2.98 -65.16 0 0 -2.98zm65.16 36.61c0,1.44 -1.18,2.62 -2.63,2.62l-59.91 0c-1.45,0 -2.62,-1.18 -2.62,-2.63l0 -2.97 5.79 0c0.59,0 1.07,-0.48 1.07,-1.08 0,-0.59 -0.48,-1.07 -1.07,-1.07l-5.79 0 0 -26.35 65.16 0 0 5.03 -10.21 0 0 0c-3.22,0 -6,1.87 -7.33,4.59 0,0.01 -0.01,0.02 -0.01,0.03 -0.01,0.02 -0.02,0.04 -0.03,0.07 -0.16,0.33 -0.3,0.68 -0.41,1.03 0,0.01 0,0.01 0,0.01 -0.24,0.76 -0.36,1.57 -0.36,2.41 0,4.49 3.65,8.15 8.14,8.15l0 0 10.21 0 0 5.03 -52.5 0c-0.59,0 -1.07,0.48 -1.07,1.07 0,0.6 0.48,1.08 1.07,1.08l52.5 0 0 2.98zm3.54 -12.58c0,0.15 -0.12,0.27 -0.26,0.27l-13.49 0c-2.27,0 -4.25,-1.27 -5.27,-3.14 -0.05,-0.09 -0.09,-0.17 -0.13,-0.26 -0.09,-0.17 -0.16,-0.35 -0.23,-0.54 -0.24,-0.64 -0.37,-1.33 -0.37,-2.06 0,-0.72 0.13,-1.41 0.37,-2.06 0.07,-0.18 0.14,-0.36 0.23,-0.53 0.04,-0.09 0.08,-0.18 0.13,-0.26 1.02,-1.87 3,-3.14 5.27,-3.14l13.49 0c0.14,0 0.26,0.12 0.26,0.26l0 11.46z"/>
    </g>
   </g>
   <g>
    <g>
     <path class="fil0" d="M227.9 56.56c-2.33,0 -4.23,1.9 -4.23,4.23 0,2.33 1.9,4.23 4.23,4.23 2.33,0 4.23,-1.9 4.23,-4.23 0,-2.33 -1.9,-4.23 -4.23,-4.23zm0 6.37c-1.18,0 -2.14,-0.96 -2.14,-2.14 0,-1.18 0.96,-2.14 2.14,-2.14 1.18,0 2.14,0.96 2.14,2.14 0,1.18 -0.96,2.14 -2.14,2.14z"/>
    </g>
   </g>
  </g>
  <g id="_2126075173808">
  </g>
  <g id="_2126075170704">
  </g>
  <g id="_2126075171856">
  </g>
  <g id="_2126075171632">
  </g>
  <g id="_2126075171920">
  </g>
  <g id="_2126075168464">
  </g>
  <g id="_2126075168848">
  </g>
  <g id="_2126075169552">
  </g>
  <g id="_2126075170256">
  </g>
  <g id="_2126075169360">
  </g>
  <g id="_2126075168528">
  </g>
  <g id="_2126075168240">
  </g>
  <g id="_2126075167088">
  </g>
  <g id="_2126075168080">
  </g>
  <g id="_2126075166832">
  </g>
 </g>
</svg>
