<?xml version="1.0" encoding="UTF-8"?>
<!DOCTYPE svg PUBLIC "-//W3C//DTD SVG 1.1//EN" "http://www.w3.org/Graphics/SVG/1.1/DTD/svg11.dtd">
<!-- Creator: CorelDRAW 2017 -->
<svg xmlns="http://www.w3.org/2000/svg" xml:space="preserve" width="1000px" height="500px" version="1.1" style="shape-rendering:geometricPrecision; text-rendering:geometricPrecision; image-rendering:optimizeQuality; fill-rule:evenodd; clip-rule:evenodd"
viewBox="0 0 1000 500"
 xmlns:xlink="http://www.w3.org/1999/xlink">
 <defs>
  <style type="text/css">
   <![CDATA[
    .fil3 {fill:black;fill-rule:nonzero}
    .fil1 {fill:#193A66;fill-rule:nonzero}
    .fil4 {fill:#7B7B7B;fill-rule:nonzero}
    .fil0 {fill:#C41618;fill-rule:nonzero}
    .fil2 {fill:white;fill-rule:nonzero}
   ]]>
  </style>
 </defs>
 <g id="Layer_x0020_1">
  <metadata id="CorelCorpID_0Corel-Layer"/>
  <g id="_1967510379280">
   <path class="fil0" d="M76.38 49.89c-0.6,0 -1.2,0.49 -1.2,1.2 0,0.8 -0.7,1.5 -1.5,1.5 -0.8,0 -1.5,-0.7 -1.5,-1.5 0,-0.6 -0.5,-1.2 -1.2,-1.2 -0.6,0 -1.2,0.49 -1.2,1.2 -0.1,2.1 1.5,3.9 3.6,4 2.1,0.1 3.9,-1.5 4,-3.6 0,-0.1 0,-0.3 0,-0.4 0.2,-0.71 -0.3,-1.2 -1,-1.2z"/>
   <path class="fil0" d="M87.39 50.08l-3.3 -1.1c-0.41,-0.1 -0.81,-0.5 -0.91,-0.9 -0.7,-2.2 -1.7,-4.2 -3.1,-6.1 -0.6,-0.9 -1.3,-1.7 -2.1,-2.5 0.5,-2.2 0.7,-4.4 0.7,-6.6 -0.1,-3 -0.7,-4.7 -1.8,-5.3 -0.6,-0.3 -2.6,-1.31 -13,3.4 -0.2,0.1 -0.5,0.3 -0.7,0.4 -0.7,-0.2 -1.4,-0.4 -2.11,-0.5l-0.3 0c0.9,-1.9 1.31,-3.9 1.41,-5.91 0,-0.6 -0.51,-1.2 -1.11,-1.2 -0.6,0 -1.2,0.5 -1.2,1.1 -0.3,5.51 -3.8,10.31 -8.9,12.11 -3.1,-0.4 -6.3,-0.4 -9.4,0 -7.11,-2.6 -10.71,-10.51 -8.11,-17.51 2.6,-7 10.51,-10.7 17.61,-8.1 1.8,0.7 3.5,1.7 4.9,3.1 1,1 1.9,2.2 2.5,3.5 0.3,0.6 1,0.8 1.6,0.5 0.6,-0.3 0.81,-1 0.51,-1.6 -0.81,-1.5 -1.81,-2.9 -3.01,-4.1 -6.6,-5.8 -16.8,-5.2 -22.61,1.5 -5.3,6 -5.3,15.11 0,21.11 0.9,0.9 1.8,1.6 2.8,2.2 -0.7,0.2 -1.5,0.4 -2.2,0.6 -0.6,0.2 -0.9,0.9 -0.7,1.5 0.2,0.6 0.9,0.9 1.5,0.7 6.41,-2.1 13.41,-2.1 19.81,0 0.1,0 0.2,0.1 0.4,0.1 0.5,0 1,-0.3 1.1,-0.8 0.2,-0.6 -0.1,-1.3 -0.7,-1.5 -0.7,-0.2 -1.4,-0.5 -2.2,-0.6 1,-0.6 2,-1.4 2.8,-2.2 0.8,-0.8 1.4,-1.6 2,-2.5l1.01 0.2 1.2 0.3c0,0.1 0,0.1 0,0.2 -0.6,2.3 -0.51,4.8 0.1,7.1 0.5,1.8 1.6,3.3 3.1,4.4 1.7,1.2 3.7,1.8 5.8,1.8 1.3,0 2.6,-0.3 3.7,-0.9 1.3,-0.9 2.3,-2.3 2.8,-3.9 0.3,0.4 0.7,0.8 1,1.2 1.2,1.7 2.1,3.5 2.8,5.5 0.4,1.2 1.3,2.11 2.41,2.41l3.3 1c0.9,0.3 1.5,1.1 1.4,2l0 5.5c0,0.9 -0.6,1.7 -1.4,2l-5.31 1.7c-0.8,0.3 -1.6,0.9 -2,1.6 -2.3,3.9 -5.8,7 -9.8,8.9 -0.5,0.31 -0.9,0.71 -1,1.31l-1.7 9c0,0.2 -0.3,0.4 -0.5,0.4l-5.51 0c-0.3,0 -0.5,-0.2 -0.5,-0.4l-0.9 -5c-0.2,-1 -1.1,-1.6 -2.1,-1.5 -2.4,0.4 -4.8,0.5 -7.3,0.6 -1.8,0 -3.6,-0.1 -5.4,-0.4 -1,-0.1 -1.8,0.6 -2,1.5l-0.9 4.8c0,0.2 -0.3,0.4 -0.5,0.4l-5.51 0c-0.3,0 -0.5,-0.2 -0.5,-0.4l-1.6 -8.5c-0.1,-0.5 -0.4,-1 -0.9,-1.3 -7.5,-4.01 -11.4,-10.61 -11.4,-19.31 -0.1,-4 0.9,-7.91 2.8,-11.41 1.8,-3.1 4.5,-5.7 7.6,-7.4 0.6,-0.3 0.8,-1 0.4,-1.6 -0.3,-0.6 -1,-0.7 -1.6,-0.4 -6.2,3.4 -10.4,9.6 -11.3,16.7l-0.3 0c0,-0.79 -0.1,-1.6 -0.4,-2.3 -0.6,-1.6 -1.9,-2.8 -3.6,-3.1 -1.21,-0.1 -2.31,0.4 -3.01,1.4 -0.9,0.9 -1.1,2.2 -0.6,3.4 0.6,1.21 2.1,2.11 4.61,2.61 -0.1,0.1 -0.1,0.2 -0.2,0.3 -1.01,1.4 -2.61,2.2 -4.41,2.3 -0.7,0 -1.2,0.6 -1.2,1.2 0,0.7 0.5,1.2 1.2,1.2l0.3 0c1.4,0 3.81,-0.5 6.01,-3.3 0.3,-0.4 0.6,-0.9 0.9,-1.4l0.6 0.1c0,0.6 -0.1,1.3 -0.1,1.9 -0.1,4.5 1.1,9 3.5,12.9 2.2,3.5 5.3,6.41 9,8.31l1.6 8.3c0.3,1.3 1.4,2.2 2.7,2.3l5.51 0c1.4,0 2.6,-1 2.8,-2.3l0.8 -4.3c1.7,0.2 3.4,0.3 5.2,0.3 2.4,0 4.8,-0.2 7.2,-0.5l0.8 4.5c0.3,1.4 1.4,2.3 2.8,2.3l5.51 0c1.4,0 2.6,-1 2.8,-2.3l1.7 -8.8c4.3,-2.2 8,-5.51 10.5,-9.71 0.1,-0.3 0.4,-0.5 0.7,-0.6l5.31 -1.7c1.8,-0.6 3.1,-2.3 3.1,-4.2l0 -5.4c-0.2,-2 -1.5,-3.71 -3.3,-4.31zm-11.21 -13.9l0 0c-0.4,3.8 -1.7,7.1 -2.9,7.8 -2.3,1 -5,0.7 -7,-0.8 -2.4,-1.8 -3.2,-4.9 -2.3,-9.1 0.1,-0.4 0.4,-0.8 0.8,-1 5.9,-2.7 9.2,-3.6 10.5,-3.6 0.1,0 0.3,0 0.4,0.1 0.5,0.4 1,2.7 0.5,6.6zm-62.83 13l0 0c0,-0.3 0.1,-0.7 0.4,-0.9 0.2,-0.3 0.4,-0.4 0.8,-0.5l0.11 0c0.79,0.2 1.4,0.9 1.7,1.7 0.1,0.41 0.2,0.71 0.3,1.11 -1.81,-0.4 -3.11,-0.91 -3.31,-1.41z"/>
   <path class="fil0" d="M47.37 22.77l0 -4.2c1.4,0.1 2,0.8 2.5,0.8 0.6,-0.1 0.9,-0.6 0.9,-1.2 0,-1 -2,-1.5 -3.4,-1.5l0 -0.6c-0.1,-0.3 -0.3,-0.5 -0.6,-0.5 -0.3,0 -0.6,0.2 -0.6,0.5l0 0.6c-2,0.2 -3.9,1.2 -3.9,3.8 0,2.6 2.1,3.4 3.9,4l0 4.81c-2.1,-0.2 -2.7,-1.6 -3.3,-1.6 -0.6,0.09 -1,0.6 -1,1.2 0,1 1.7,2.4 4.3,2.4l0 0.6c0,0.3 0.3,0.5 0.6,0.5 0.3,0 0.6,-0.2 0.6,-0.5l0 -0.7c2.2,-0.1 3.9,-2 3.8,-4.2 0,-2.61 -2,-3.51 -3.8,-4.21zm-1 -0.4l0 0c-1.1,-0.4 -2,-0.8 -2,-2 0,-1.2 0.8,-1.6 2,-1.7l0 3.7zm1 7.01l0 0 0 -4.31c1.1,0.3 1.8,1.2 1.8,2.3 0,1.11 -0.8,2.01 -1.8,2.01z"/>
   <path class="fil0" d="M390.62 52.29c-2.1,-4.61 -4.81,-9.01 -8.01,-12.91 -0.4,-0.5 -1.1,-0.6 -1.6,-0.2 -0.5,0.4 -0.6,1.1 -0.2,1.6 3.1,3.8 5.61,7.9 7.61,12.41 2,4.2 2.9,8.9 2.5,13.6 -0.4,4.2 -2.5,8.21 -5.71,10.91 -3.2,2.6 -6.8,4.5 -10.8,5.6 -5,1.4 -10.2,2.1 -15.41,2.2l-0.1 0c-5.2,0 -10.4,-0.7 -15.4,-2.2 -4,-1.1 -7.61,-3 -10.81,-5.6 -3.2,-2.8 -5.3,-6.71 -5.7,-10.91 -0.8,-6.7 1.7,-14.3 7.4,-22.41 3.7,-5.2 8.01,-10 12.81,-14.3l23.61 0c1.5,1.3 3.4,3.2 5.4,5.3 0.4,0.5 1.2,0.5 1.6,0 0.4,-0.4 0.5,-1.2 0,-1.6 -1.6,-1.7 -3.1,-3.2 -4.5,-4.4 1.6,-1.2 1.9,-3.41 0.8,-5.01 -0.7,-0.9 -1.7,-1.4 -2.9,-1.5l-0.3 0c1.5,-2.2 2.9,-4.5 4.2,-6.9 1.7,-3.4 2.2,-5.6 1.6,-7.1 -0.4,-0.9 -1.2,-1.5 -2.2,-1.6 -1.5,-0.2 -3.6,0.4 -6.1,1.2 -3,1.1 -6.2,1.7 -9.51,1.9 -3.2,-0.2 -6.4,-0.8 -9.5,-1.9 -2.6,-0.8 -4.6,-1.4 -6.1,-1.2 -1,0.1 -1.8,0.7 -2.2,1.6 -0.6,1.5 -0.1,3.7 1.6,7.1 1.3,2.4 2.7,4.7 4.2,6.9l-0.3 0c-2,0 -3.6,1.6 -3.6,3.6 0,1.11 0.5,2.21 1.5,2.91 -8.01,7.4 -21.51,22.41 -19.81,37.61 1,8.81 7.3,15.21 18.21,18.51 5.2,1.5 10.6,2.2 16,2.2l0.5 0c5.31,0 10.51,-0.8 15.51,-2.2 11,-3.2 17.21,-9.6 18.21,-18.51 0.5,-5 -0.4,-10.1 -2.5,-14.7zm-47.32 -42.32l0 0c0.1,-0.2 0.2,-0.3 0.4,-0.2 1,-0.1 3,0.5 5.1,1.1 3.3,1.2 6.7,1.8 10.1,2 3.51,-0.2 6.91,-0.8 10.11,-2 2.1,-0.6 4.1,-1.3 5.1,-1.1 0.2,0 0.3,0.1 0.4,0.2 0.1,0.2 0.8,2.6 -5.9,12.2 -0.2,0.3 -0.3,0.6 -0.5,0.8l-18.61 0c-0.1,-0.3 -0.3,-0.6 -0.5,-0.8 -6.5,-9.7 -5.8,-12 -5.7,-12.2zm3.4 15.4l0 0 24.61 0c0.7,0 1.3,0.6 1.3,1.31 0,0.69 -0.6,1.3 -1.3,1.3l-24.61 0c-0.7,0 -1.3,-0.61 -1.3,-1.3 0,-0.81 0.6,-1.31 1.3,-1.31z"/>
   <path class="fil0" d="M372.21 44.08c-7.3,-7.3 -19.11,-7.3 -26.41,0 -2.6,2.6 -4.3,5.81 -5.1,9.41 0,0.6 0.5,1.2 1.1,1.2 0.5,0 1,-0.3 1.1,-0.7 1.9,-8.81 10.6,-14.41 19.4,-12.51 8.81,1.9 14.41,10.61 12.51,19.41 -1.9,8.8 -10.6,14.41 -19.41,12.5 -6.2,-1.4 -11.1,-6.2 -12.5,-12.5 -0.1,-0.6 -0.7,-1.1 -1.3,-1 -0.6,0.1 -1.1,0.7 -1,1.3l0 0.1c2.2,10.1 12.2,16.41 22.3,14.11 10.11,-2.2 16.41,-12.21 14.11,-22.31 -0.7,-3.31 -2.4,-6.41 -4.8,-9.01z"/>
   <path class="fil0" d="M360.2 56.39l-0.1 0 0 -6.41 0.2 0c1,0.1 1.91,0.31 2.71,0.81 0.3,0.19 0.6,0.3 0.9,0.3 0.8,0 1.2,-1.01 1.2,-1.61 0,-0.7 -0.9,-1.2 -1.6,-1.5 -1,-0.3 -2.11,-0.5 -3.21,-0.5l-0.2 0 0 -1c-0.1,-0.3 -0.4,-0.5 -0.7,-0.5 -0.3,0 -0.7,0.2 -0.7,0.5l0 1 -0.1 0c-1.7,0.2 -5.6,1.1 -5.6,5.41 0,3.8 3,4.8 5.6,5.8l0.1 0 0 7.4 -0.2 0c-1.4,-0.1 -2.8,-0.7 -3.8,-1.7 -0.3,-0.3 -0.6,-0.5 -1.1,-0.6 -0.7,0.2 -1.2,0.8 -1.2,1.6 0,1.3 2.4,3.3 6.1,3.4l0.1 0 0 1.1c0.1,0.3 0.4,0.6 0.7,0.5 0.3,0 0.7,-0.2 0.7,-0.5l0 -1.1 0.1 0c3.11,-0.2 5.51,-2.9 5.31,-6 0.2,-4 -2.51,-5.3 -5.21,-6.4zm-1.4 -0.5l0 0 -0.2 -0.1c-1.6,-0.6 -3,-1.3 -3,-3.1 0,-1.5 1,-2.4 3,-2.71l0.2 0 0 5.91zm1.3 10.2l0 0 -0.2 0 0 -6.7 0.2 0.1c1.41,0.6 2.71,1.5 2.71,3.5 0.2,1.6 -1.11,3 -2.71,3.1z"/>
   <path class="fil0" d="M241.65 54.09l-1.1 0 0 -10.21c0,-1.5 -0.7,-3 -2,-3.9l0 -1.4c0,-2 -1.6,-3.6 -3.6,-3.6l-0.9 0 3.2 -4.7c1.1,-1.6 0.7,-3.81 -0.9,-4.81l-21.91 -14.9c-1.6,-1.1 -3.7,-0.7 -4.8,0.9l-18.91 27.71 -5.3 0 1.3 -12.8c0,-0.11 0.1,-0.31 0.2,-0.31 1.6,-0.6 3.1,-1.8 4,-3.2 0.1,-0.1 0.2,-0.2 0.4,-0.2l8.2 0.8c0.6,0.1 1.11,-0.4 1.21,-1 0.09,-0.6 -0.4,-1.1 -1,-1.2l-8.21 -0.8c-0.9,-0.1 -1.9,0.3 -2.4,1.2 -0.7,1.1 -1.7,1.9 -2.9,2.4 -0.9,0.3 -1.5,1.2 -1.6,2.1l-1.3 13.01 -1.4 0 2 -20.31c0.1,-0.7 0.7,-1.3 1.5,-1.2l16.61 1.6c0.6,0 1.1,-0.5 1.1,-1.1 0,-0.5 -0.4,-1 -0.9,-1.1l-16.61 -1.6c-1.9,-0.2 -3.6,1.2 -3.8,3.1l-1.6 16.41 -2.8 0c-2.01,0 -3.61,1.6 -3.61,3.6l0 1c-1.7,0.8 -2.8,2.5 -2.8,4.3l0 36.62c0,2.6 2.1,4.8 4.8,4.8l59.93 0c2.6,0 4.8,-2.1 4.8,-4.8l0 -10.11 1.1 0c1.3,0 2.4,-1.1 2.4,-2.4l0 -11.5c0,-1.4 -1.1,-2.4 -2.4,-2.4zm-6.8 -17.01l0 0c0.8,0 1.5,0.7 1.5,1.5l0 0.5c-0.2,0 -0.4,0 -0.6,0l-4.6 0 1.4 -2 2.3 0zm-23.51 -24.41l0 0c0.2,-0.3 0.5,-0.5 0.9,-0.6l0.3 0c0.3,0 0.5,0.1 0.8,0.2l21.91 14.9c0.6,0.41 0.8,1.2 0.4,1.81l-6.9 10.1 -1.6 0 3.4 -4.9c0.5,-0.8 0.6,-1.8 0.1,-2.7 -0.6,-1.1 -0.9,-2.4 -0.7,-3.71 0.1,-0.9 -0.3,-1.9 -1.1,-2.4l-11.31 -7.7c-0.8,-0.6 -1.8,-0.6 -2.6,-0.1 -1.1,0.6 -2.4,0.9 -3.7,0.7 -1,-0.1 -1.9,0.3 -2.4,1.1l-13.51 19.81 -1.6 0 17.61 -26.51zm0.5 18.21l0 0c-4.6,0 -8.5,3.6 -8.8,8.3l-5.41 0 12.71 -18.61c0.1,-0.1 0.2,-0.2 0.3,-0.2l0.1 0c1.7,0.2 3.5,-0.1 5.1,-0.9 0.1,-0.1 0.3,-0.1 0.4,0l11.31 7.7c0.1,0.11 0.2,0.2 0.2,0.41 -0.2,1.7 0.1,3.5 1,5 0.1,0.1 0.1,0.3 0,0.4l-4.2 6.2 -3.61 0c-0.5,-4.8 -4.4,-8.3 -9.1,-8.3zm6.7 8.2l0 0 -13.4 0c0.3,-3.7 3.6,-6.4 7.3,-6.1 3.2,0.3 5.8,2.9 6.1,6.1zm-42.52 -0.5l0 0c0,-0.8 0.7,-1.5 1.5,-1.5l2.51 0 -0.2 2 -3.81 0 0 -0.5zm-2.8 5.3l0 0c0,-1.4 1.2,-2.6 2.6,-2.6l59.93 0c1.4,0 2.6,1.2 2.6,2.6l0 3 -65.23 0 0.1 -3zm65.13 36.62l0 0c0,1.4 -1.2,2.6 -2.6,2.6l-59.93 0c-1.4,0 -2.6,-1.2 -2.6,-2.6l0 -3 5.81 0c0.6,-0.1 1,-0.6 1,-1.2 0,-0.5 -0.5,-0.9 -1,-1l-5.81 0 0 -26.32 65.23 0 0 5.01 -10.2 0c-3.1,0 -6.01,1.8 -7.31,4.6l0 0.1c-0.2,0.3 -0.3,0.7 -0.4,1 -0.2,0.8 -0.4,1.6 -0.4,2.4 0,4.5 3.6,8.1 8.11,8.2l10.2 0 0 5.01 -52.52 0c-0.6,0.1 -1,0.6 -1,1.2 0,0.5 0.5,0.9 1,1l52.52 0 0 3 -0.1 0zm3.5 -12.61l0 0c0,0.1 -0.1,0.3 -0.3,0.3l-13.5 0c-2.2,0 -4.2,-1.2 -5.31,-3.1 -0.09,-0.1 -0.09,-0.2 -0.09,-0.3 -0.11,-0.2 -0.21,-0.4 -0.21,-0.5 -0.2,-0.7 -0.4,-1.4 -0.4,-2.1 0,-0.7 0.1,-1.4 0.4,-2.1 0.1,-0.2 0.1,-0.4 0.21,-0.5 0,-0.1 0.09,-0.2 0.09,-0.3 1,-1.9 3.11,-3.1 5.31,-3.1l13.5 0c0.1,0 0.3,0.1 0.3,0.3l0 11.4z"/>
   <path class="fil0" d="M227.75 57.49c-2.3,0 -4.2,1.9 -4.2,4.2 0,2.3 1.9,4.2 4.2,4.2 2.3,0 4.2,-1.9 4.2,-4.2 0.1,-2.3 -1.8,-4.1 -4.2,-4.2zm0 6.4l0 0c-1.2,0 -2.2,-0.9 -2.2,-2.1 0,-1.2 0.9,-2.2 2.1,-2.2 1.2,0 2.2,0.9 2.2,2.1 0,1.2 -0.9,2.2 -2.1,2.2z"/>
   <path class="fil0" d="M78.68 167.94l-12.2 -5.91c1.9,-1.9 2.7,-4.7 2.1,-7.3 -0.8,-4.2 -4.9,-7 -9.21,-6.2 -0.1,0 -0.1,0 -0.2,0 -0.2,0 -0.3,0.1 -0.4,0.2 -0.2,-0.1 -0.4,-0.1 -0.5,-0.2 -2.3,-0.7 -4.9,0 -6.5,1.8l-19.01 18.41c-1.8,1.7 -3.2,3.7 -4.1,6.1 -0.2,0.6 -0.4,1.2 -0.6,1.8 -0.4,1.9 -1.3,3.6 -2.4,5.1l-1.1 -1.2c-1.4,-1.4 -3.6,-1.5 -5.1,-0.1l-7.11 6.9c-1.4,1.41 -1.5,3.71 -0.1,5.11l25.11 26.51c0.7,0.7 1.61,1.1 2.51,1.1l0.1 0c0.9,0 1.8,-0.4 2.5,-1l4.1 -4c0.6,-0.6 0.6,-1.5 0,-2.1 -0.6,-0.6 -1.5,-0.6 -2.1,0l-4.1 4c-0.3,0.3 -0.71,0.3 -1.01,0l-6 -6.31 8.11 -7.9 6 6.3c0.6,0.6 1.5,0.6 2.1,0 0.6,-0.6 0.6,-1.5 0,-2.1l-1.6 -1.7 10.1 -9.6c0.6,-0.6 0.6,-1.5 0.1,-2.1 -0.5,-0.6 -1.5,-0.6 -2,-0.1l-10.2 9.7 -18.31 -19.31c1.5,-1.9 2.6,-4 3.1,-6.4 0.2,-0.6 0.4,-1.1 0.6,-1.7 0.7,-1.9 1.8,-3.6 3.3,-4.9l19.01 -18.31c0.9,-1 2.4,-1.4 3.7,-1.1 1.3,0.4 2.3,1.4 2.6,2.7 0.3,1.5 -0.3,3.1 -1.5,4.1l-13.4 13.01c-0.6,0.6 -0.6,1.5 0,2.1l1 1.1c1.7,1.8 1.6,4.6 -0.1,6.3l-4.3 4.1c-0.6,0.6 -0.6,1.5 0,2.1 0.6,0.61 1.5,0.61 2.1,0l4.3 -4.1c2.9,-2.8 3,-7.5 0.2,-10.5l10.8 -10.51 18.41 8.81c0.7,0.3 1.6,0 1.9,-0.7 0.4,-0.9 0,-1.7 -0.7,-2zm-39.11 32.61l0 0 -8.11 7.9 -17.1 -18c-0.31,-0.3 -0.31,-0.7 0,-1l7.1 -6.91c0.1,-0.1 0.3,-0.2 0.5,-0.2 0.2,0 0.4,0.1 0.5,0.2l17.11 18.01zm24.41 -40.02l0 0c-0.1,0.1 -0.2,0.2 -0.3,0.3l-2.5 -1.2c1.5,-1.7 2.1,-4 1.6,-6.2 -0.21,-0.7 -0.4,-1.3 -0.81,-1.9 1.91,0.5 3.31,2 3.71,3.9 0.5,1.8 -0.2,3.8 -1.7,5.1z"/>
   <path class="fil0" d="M76.08 142.33c-0.1,-0.81 -0.8,-1.41 -1.6,-1.31l-41.52 3.81c-0.9,0.1 -1.6,0.5 -2.2,1.2 -0.5,0.7 -0.8,1.5 -0.7,2.4l0.3 2.8c0.1,0.8 0.7,1.3 1.5,1.3l0.1 0c0.8,-0.1 1.4,-0.8 1.3,-1.6l-0.3 -2.7c0,-0.1 0,-0.2 0.1,-0.2 0.1,-0.1 0.1,-0.1 0.2,-0.1l41.52 -3.8c0.8,-0.3 1.3,-1.01 1.3,-1.8z"/>
   <path class="fil0" d="M91.19 163.73l-1.9 -20.8c-0.2,-1.81 -1.7,-3.11 -3.5,-2.91l-3.51 0.3c-0.8,0.1 -1.3,0.9 -1.2,1.71 0.1,0.69 0.7,1.2 1.5,1.2l3.51 -0.3c0.2,0 0.3,0.1 0.3,0.3l1.9 20.8c0,0.1 0,0.2 -0.1,0.2 -0.1,0.1 -0.1,0.1 -0.2,0.1l-4.5 0.4c-0.81,0.1 -1.41,0.81 -1.31,1.6 0.1,0.71 0.7,1.31 1.4,1.31l0.21 0 4.5 -0.4c0.9,-0.1 1.6,-0.5 2.2,-1.21 0.6,-0.6 0.8,-1.5 0.7,-2.3z"/>
   <path class="fil0" d="M84.28 158.53c-2.6,-0.2 -4.6,-2.4 -4.4,-5 0.1,-2.1 1.7,-3.9 3.8,-4.3 0.81,-0.1 1.31,-0.9 1.2,-1.7 -0.09,-0.8 -0.9,-1.3 -1.7,-1.2 -4.1,0.8 -6.8,4.8 -6,9 0.7,3.4 3.6,5.9 7,6.1l0.1 0c0.81,0 1.41,-0.7 1.41,-1.5 -0.1,-0.8 -0.7,-1.3 -1.41,-1.4z"/>
   <path class="fil0" d="M44.87 151.63l-3.8 -1.8c-1.6,-0.8 -3.51,-0.1 -4.31,1.5l-6.1 12.9c-0.4,0.71 -0.1,1.61 0.6,2.01 0.2,0.09 0.4,0.09 0.6,0.09 0.6,0 1.1,-0.3 1.3,-0.79l6.11 -12.91c0.09,-0.2 0.3,-0.2 0.39,-0.2l3.81 1.8c0.7,0.3 1.6,0 1.9,-0.7 0.6,-0.7 0.3,-1.6 -0.5,-1.9 0.1,0 0,0 0,0z"/>
   <path class="fil0" d="M90.69 174.74c-0.3,-0.8 -0.9,-1.5 -1.7,-1.9l-3.2 -1.5c-0.7,-0.3 -1.61,0 -1.91,0.7 -0.39,0.7 -0.09,1.6 0.61,2l3.2 1.5c0.2,0.1 0.2,0.3 0.2,0.4l-8.91 18.91c-0.1,0.2 -0.3,0.2 -0.4,0.1l-24.61 -11.71c-0.7,-0.3 -1.6,0 -1.9,0.7 -0.4,0.7 -0.1,1.6 0.6,2 0,0 0,0 0.1,0l24.51 11.61c0.4,0.2 0.9,0.3 1.4,0.3 1.3,0 2.4,-0.7 2.9,-1.9l8.91 -18.81c0.4,-0.7 0.4,-1.6 0.2,-2.4z"/>
   <path class="fil0" d="M66.78 170.94c-0.7,-2 -2.2,-3.7 -4.1,-4.61 -1.1,-0.49 -2.31,-0.79 -3.41,-0.79 -4.5,0 -8.1,3.7 -8,8.2 0,3.1 1.8,5.8 4.5,7.2 1.1,0.5 2.3,0.8 3.4,0.8 4.51,0 8.11,-3.7 8.01,-8.2 0.1,-0.8 -0.1,-1.7 -0.4,-2.6zm-3 4.9l0 0c-0.8,1.8 -2.6,2.9 -4.61,2.9 -0.8,0 -1.5,-0.2 -2.2,-0.5 -2.6,-1.2 -3.6,-4.3 -2.4,-6.9 0.9,-1.8 2.6,-2.9 4.6,-2.9 0.8,0 1.5,0.2 2.2,0.5 1.2,0.6 2.21,1.6 2.61,2.9 0.5,1.4 0.4,2.8 -0.2,4z"/>
   <path class="fil0" d="M83.38 176.94c-3.7,-1.4 -7.8,0.3 -9.4,3.9 -1.6,3.4 -0.5,7.5 2.6,9.61 0.7,0.4 1.6,0.3 2,-0.4 0.4,-0.7 0.2,-1.5 -0.4,-2.01 -1.9,-1.3 -2.6,-3.8 -1.6,-5.9 1,-2.2 3.5,-3.2 5.8,-2.4 0.8,0.3 1.6,-0.1 1.9,-0.9 0.3,-0.7 -0.1,-1.6 -0.9,-1.9 0.11,0 0.11,0 0,0z"/>
   <path class="fil0" d="M207.14 192.15c-2.2,0 -4.1,1.8 -4.1,4 0,2.2 1.8,4.1 4,4.1 2.2,0 4.1,-1.8 4.1,-4.1 0.1,-2.2 -1.7,-4 -4,-4zm0 5l0 0c-0.5,0 -0.9,-0.4 -0.9,-0.9 0,-0.5 0.4,-0.9 0.9,-0.9 0.5,0 0.9,0.4 0.9,0.9 0,0.5 -0.3,0.9 -0.9,0.9z"/>
   <path class="fil0" d="M219.74 187.04c-0.6,-0.6 -1.6,-0.6 -2.2,0 -0.6,0.6 -0.6,1.6 0,2.2 0.6,0.61 1.6,0.61 2.2,0 0.3,-0.3 0.5,-0.69 0.5,-1.09 -0.1,-0.41 -0.3,-0.81 -0.5,-1.11z"/>
   <path class="fil0" d="M239.65 162.53l-1.6 0 -22.01 -22.01c-0.6,-0.6 -1.6,-0.6 -2.2,0l-5.6 5.71 -22.51 -6.11c-0.8,-0.2 -1.7,0.3 -1.9,1.1l-5.7 21.31 -3.81 0c-3.6,0 -6.6,2.9 -6.6,6.61 0,0.1 0,0.2 0,0.3 0,0.1 0,0.1 0,0.1l0 42.71c0,4.31 3.5,7.81 7.8,7.81l64.23 0c4.3,0 7.81,-3.5 7.81,-7.81l0 -41.91c-0.1,-4.31 -3.61,-7.81 -7.91,-7.81zm-1.4 3.1l0 0 1.4 0c2.6,0 4.7,2.11 4.7,4.71l0 12.5c0,2 -1.7,3.7 -3.7,3.7l-1.6 0 0 -6.2c0,-4.2 -3.4,-7.7 -7.6,-7.8l6.8 -6.91zm-28.51 -16.7l0 0 5.2 -5.21 20.41 20.41 -8.2 8.21 -2.9 0 3.7 -3.7c0.6,-0.6 0.6,-1.6 0,-2.2 -1.3,-1.31 -1.3,-3.31 0,-4.61 0.6,-0.6 0.6,-1.6 0,-2.2l-8.61 -8.6c-0.6,-0.6 -1.6,-0.6 -2.2,0 -1.3,1.3 -3.3,1.3 -4.6,0 -0.6,-0.6 -1.6,-0.6 -2.2,0l-21.31 21.31 -2.9 0 23.61 -23.41zm-4.6 17.61l0 0c-3.5,0 -6.51,2.5 -7.31,5.9l-4.3 0 18.11 -18.11c2,1.2 4.5,1.2 6.5,0l6.61 6.6c-1.2,2 -1.2,4.5 0,6.51l-5.01 5 -7.4 0c-0.7,-3.4 -3.7,-5.81 -7.2,-5.9zm4 5.9l0 0 -8 0c0.9,-2.2 3.4,-3.3 5.6,-2.4 1.1,0.4 2,1.3 2.4,2.4zm-24.51 -2.8l0 0 4.1 -15.41c2.3,0 4.5,-1.2 5.6,-3.3l7.01 1.9 -10.21 10.2 -6.5 6.61zm1.7 -26.22l0 0 19.31 5.21 -1.6 1.6 -10.11 -2.7c-0.8,-0.2 -1.7,0.3 -1.9,1.1 -0.5,1.7 -2.2,2.8 -4,2.3 -0.8,-0.2 -1.7,0.3 -1.9,1.1l-5.4 20.41 -2.1 0 7.7 -29.02zm-12.21 22.21l0 0 3.01 0 -1.81 6.91 -1.2 0c-1.9,-0.1 -3.4,-1.7 -3.2,-3.6 0.1,-1.8 1.5,-3.21 3.2,-3.31zm70.23 46.53l0 0c0,2.6 -2.1,4.7 -4.7,4.7l-2.2 0c1,-1.4 1.6,-3 1.6,-4.7l0 -6.21 0.9 0c1.6,0 3.1,-0.5 4.4,-1.4l0 7.61 0 0zm0 -13.71l0 0c0,2.4 -2,4.4 -4.4,4.4l-32.81 0c-3.6,0 -6.61,-2.9 -6.61,-6.6 0,-3.6 2.91,-6.6 6.61,-6.6l4.7 0c0.9,0 1.6,-0.71 1.6,-1.61 0,-0.9 -0.7,-1.6 -1.6,-1.6l-4.7 0c-5.3,0.2 -9.51,4.61 -9.41,10.01 0.2,5.1 4.31,9.2 9.41,9.4l28.71 0 0 6.31c0,2.6 -2.1,4.6 -4.6,4.7l-53.12 0 0 -17.61c0,-0.9 -0.7,-1.6 -1.61,-1.6 -0.9,0 -1.6,0.7 -1.6,1.6l0 17.61c-2.5,-0.2 -4.4,-2.2 -4.4,-4.7l0 -37.52c1,0.6 2.2,1 3.4,1l57.13 0c2.6,0 4.7,2.1 4.7,4.7l0 6.2 -11.3 0c-0.9,0 -1.61,0.7 -1.61,1.61 0,0.9 0.71,1.6 1.61,1.6l16 0c1.3,0 2.6,-0.4 3.7,-1.11l0.2 9.81z"/>
   <path class="fil0" d="M177.73 192.05c-0.6,-0.6 -1.61,-0.6 -2.21,0 -0.6,0.6 -0.6,1.6 0,2.2 0.6,0.6 1.61,0.6 2.21,0 0.3,-0.3 0.49,-0.7 0.49,-1.1 0,-0.4 -0.19,-0.8 -0.49,-1.1z"/>
   <path class="fil0" d="M391.08 167.54l-25.31 -25.32c-2.8,-2.8 -7.41,-2.8 -10.31,0l-40.21 40.12c-2.81,2.8 -2.81,7.41 0,10.31l3.1 3.1 21.01 21.01 -2.91 0c-0.9,-0.1 -1.7,0.6 -1.8,1.5 -0.1,0.9 0.6,1.7 1.5,1.8 0.1,0 0.2,0 0.3,0l33.32 0c0.9,0.1 1.7,-0.6 1.8,-1.5 0.1,-0.9 -0.6,-1.7 -1.5,-1.8 -0.1,0 -0.2,0 -0.3,0l-17.61 0 38.92 -38.92c2.9,-2.9 2.9,-7.5 0,-10.3zm-2.3 7.9l0 0 -40.22 40.22c-0.7,0.7 -1.7,1.1 -2.8,1.1 -1,0 -2,-0.4 -2.8,-1.1l-21.01 -21.01 38.52 -38.52c0.69,-0.6 0.69,-1.7 0.09,-2.4 -0.6,-0.7 -1.7,-0.7 -2.4,-0.1l-0.1 0.1 -38.61 38.62 -2 -1.9c-1.5,-1.51 -1.5,-4.01 0,-5.61l40.21 -40.11c1.5,-1.5 4.01,-1.5 5.61,0l9 9 -38.62 38.62c-0.6,0.7 -0.6,1.7 0.1,2.4 0.6,0.6 1.6,0.6 2.3,0l38.62 -38.62 14.01 14.01c1.6,1.3 1.6,3.8 0.1,5.3z"/>
   <path class="fil0" d="M360.2 188.24c-0.7,-0.69 -1.7,-0.69 -2.4,0l-13.1 13.11c-0.6,0.7 -0.6,1.7 0.1,2.4 0.6,0.6 1.6,0.6 2.3,0l13.1 -13.1c0.7,-0.7 0.7,-1.8 0,-2.41z"/>
   <path class="fil0" d="M354.8 200.65l-5.4 5.4c-0.6,0.7 -0.6,1.7 0.1,2.4 0.6,0.6 1.6,0.6 2.3,0l5.4 -5.4c0.6,-0.7 0.6,-1.7 -0.1,-2.4 -0.6,-0.6 -1.6,-0.6 -2.3,0z"/>
   <path class="fil0" d="M359.8 195.75l-0.7 0.7c-0.7,0.6 -0.7,1.7 -0.1,2.4 0.6,0.7 1.7,0.7 2.4,0.1l0.11 -0.1 0.7 -0.7c0.69,-0.6 0.69,-1.7 0.09,-2.4 -0.7,-0.7 -1.7,-0.8 -2.5,0 0,-0.1 0,-0.1 0,0z"/>
   <path class="fil0" d="M382.81 165.63c-0.7,-0.69 -1.7,-0.69 -2.4,0l-7.1 7.11c-0.7,0.7 -0.7,1.7 0,2.4l4.7 4.7c0.7,0.7 1.7,0.7 2.4,0l7.11 -7.1c0.7,-0.7 0.7,-1.7 0,-2.4l-4.71 -4.71zm-3.6 10.61l0 0 -2.4 -2.4 4.7 -4.7 2.4 2.4 -4.7 4.7z"/>
   <path class="fil0" d="M369.21 152.53c0.4,0 0.9,-0.2 1.2,-0.5l0.7 -0.7c0.7,-0.6 0.7,-1.7 0.1,-2.4 -0.6,-0.7 -1.7,-0.7 -2.4,-0.1l-0.1 0.1 -0.7 0.7c-0.7,0.7 -0.7,1.7 0,2.4 0.3,0.4 0.8,0.5 1.2,0.5z"/>
   <path class="fil0" d="M335.89 196.05l-0.7 0.7c-0.6,0.7 -0.6,1.7 0.1,2.4 0.6,0.6 1.6,0.6 2.3,0l0.7 -0.7c0.61,-0.7 0.61,-1.7 -0.1,-2.4 -0.6,-0.6 -1.6,-0.6 -2.3,0z"/>
   <path class="fil1" d="M20.16 302.46c-0.2,0.2 -0.2,0.5 0,0.8 0.2,0.2 0.5,0.2 0.7,0l3.7 -3.7c0.2,-0.2 0.2,-0.6 0,-0.8l-3.7 -3.7c-0.2,-0.2 -0.5,-0.2 -0.7,0 -0.2,0.2 -0.2,0.5 0,0.8l2.8 2.8 -11.51 0c-0.3,0 -0.5,0.3 -0.5,0.6 0,0.2 0.2,0.4 0.5,0.5l11.51 0 -2.8 2.7zm5.6 -10.8l0 0 -10.61 0c-1.2,0 -2.1,1 -2.1,2.1l0 2.1 1.1 0 0 -2.1c0,-0.6 0.51,-1.1 1.11,-1.1l10.6 0c0.6,0 1.1,0.5 1.1,1.1l0 10.7c0,0.6 -0.5,1.1 -1.1,1.1l-10.71 0c-0.6,0 -1.1,-0.5 -1.1,-1.1l0 -2.1 -1.1 0 0 2.1c0,1.2 0.9,2.1 2.11,2.1l10.6 0c1.2,0 2.1,-1 2.1,-2.1l0 -10.7c0.2,-1.2 -0.8,-2.1 -2,-2.1z"/>
   <path class="fil1" d="M77.68 300.96c-0.3,0 -0.5,0.2 -0.5,0.5l0 2c0,1.1 -0.9,2.1 -2,2.1l-13.91 0c-1.1,0 -2,-1 -2,-2.1l0 -2c0.1,-0.3 -0.1,-0.5 -0.4,-0.6 -0.3,-0.1 -0.5,0.1 -0.6,0.4 0,0.1 0,0.1 0,0.2l0 2c0,1.7 1.3,3.1 3,3.1l13.81 0c1.7,0 3.1,-1.4 3.1,-3.1l0 -2c0,-0.2 -0.2,-0.5 -0.5,-0.5z"/>
   <path class="fil1" d="M74.58 303.06l-12.8 0c-0.3,0.1 -0.41,0.4 -0.41,0.6 0,0.2 0.21,0.3 0.41,0.4l12.8 0c0.3,-0.1 0.4,-0.4 0.3,-0.6 0,-0.2 -0.1,-0.4 -0.3,-0.4z"/>
   <path class="fil1" d="M73.38 295.76c-0.2,-0.2 -0.5,-0.2 -0.7,0l-3.9 3.6 0 -10.11c0.1,-0.3 -0.1,-0.5 -0.4,-0.6 -0.3,-0.1 -0.5,0.1 -0.6,0.4 0,0.1 0,0.1 0,0.2l0 10.11 -3.9 -3.6c-0.2,-0.2 -0.5,-0.2 -0.7,0 -0.2,0.2 -0.2,0.5 0,0.7l4.3 3.9c0.5,0.4 1.2,0.4 1.7,0l4.3 -3.9c0,-0.2 0.1,-0.5 -0.1,-0.7z"/>
   <path class="fil1" d="M136.71 305.66l-0.4 0 0 -13.7c0,-0.3 -0.2,-0.5 -0.5,-0.5l-3.8 0c-0.31,0 -0.5,0.2 -0.5,0.5l0 5c0,0.3 0.19,0.5 0.5,0.5 0.3,0 0.5,-0.2 0.5,-0.5l0 -4.6 2.8 0 0 13.3 -2.8 0 0 -4.1c0,-0.3 -0.2,-0.5 -0.5,-0.5 -0.31,0 -0.5,0.2 -0.5,0.5l0 4.1 -1.11 0 0 -10.6c0,-0.3 -0.2,-0.5 -0.5,-0.5l-3.8 0c-0.3,0 -0.5,0.2 -0.5,0.5l0 10.6 -1.3 0 0 -7.7c0,-0.3 -0.2,-0.5 -0.5,-0.5l-3.8 0c-0.3,0 -0.5,0.2 -0.5,0.5l0 7.7 -1.1 0 0 -4.7c0,-0.3 -0.2,-0.5 -0.5,-0.5l-3.8 0c-0.3,0 -0.5,0.2 -0.5,0.5l0 4.7 -0.4 0c-0.3,0 -0.5,0.2 -0.5,0.5 0,0.3 0.2,0.5 0.5,0.5l23.11 0c0.3,-0.1 0.4,-0.3 0.4,-0.6 0.3,-0.2 0.2,-0.3 0,-0.4zm-19.01 0l0 0 -2.8 0 0 -4.2 2.8 0 0 4.2zm5.8 0l0 0 -2.8 0 0 -7.2 2.8 0 0 7.2zm6 0l0 0 -2.8 0 0 -10.2 2.8 0 0 10.2z"/>
   <path class="fil1" d="M132.41 298.86c-0.2,-0.2 -0.5,-0.2 -0.71,0 -0.19,0.2 -0.19,0.5 0,0.7 0.21,0.2 0.51,0.2 0.71,0 0.1,-0.1 0.1,-0.2 0.1,-0.3 0.1,-0.2 0,-0.3 -0.1,-0.4z"/>
   <path class="fil1" d="M129.8 288.65l-1.8 0c-0.3,0 -0.5,0.2 -0.5,0.5 0,0.3 0.2,0.5 0.5,0.5l0.7 0 -5 5.01 -2.6 -2.5c-0.2,-0.2 -0.5,-0.2 -0.7,0l-5.1 5.1c-0.2,0.2 -0.2,0.5 0,0.7 0.2,0.2 0.5,0.2 0.7,0l4.8 -4.8 2.6 2.6c0.2,0.2 0.5,0.2 0.7,0l5.3 -5.4 0 0.7c0,0.3 0.2,0.5 0.5,0.5 0.3,0 0.5,-0.2 0.5,-0.5l0 -1.81c-0.09,-0.4 -0.3,-0.6 -0.6,-0.6 0.1,0 0,0 0,0z"/>
   <path class="fil1" d="M114.8 298.36c-0.2,-0.2 -0.5,-0.2 -0.7,0 -0.2,0.2 -0.2,0.5 0,0.7 0.2,0.2 0.5,0.2 0.7,0 0.1,-0.1 0.1,-0.2 0.1,-0.3 0.1,-0.2 0,-0.3 -0.1,-0.4z"/>
   <path class="fil1" d="M75.18 420.54l-7.8 0c-2,0 -3.7,1.61 -3.7,3.71l0 0.4c0,2 1.7,3.7 3.7,3.7l7.8 0c2,0 3.7,-1.6 3.7,-3.7l0 -0.4c0,-2.1 -1.7,-3.71 -3.7,-3.71z"/>
   <path class="fil1" d="M75.18 411.34l-1.6 0 0 -17.81c0,-2.6 -2.1,-4.7 -4.7,-4.7l-31.02 0c-2.6,0 -4.7,2.1 -4.7,4.7l0 12.81c-6.2,3.5 -12.7,7.2 -12.7,7.2 -3.5,1.4 -8.61,6 -8.61,16.91 0,0.9 0.1,1.8 0.2,2.7 0,0.3 0.1,0.5 0.1,0.7 0.1,0.7 0.2,1.3 0.3,1.8 0,0.2 0.1,0.4 0.1,0.6 0.2,0.6 0.4,1.3 0.6,1.9 0.1,0.3 0.3,0.6 0.4,0.8 0.1,0.3 0.3,0.6 0.4,0.9 0.2,0.3 0.41,0.6 0.5,0.9l0.1 0.2c4.51,6.81 12.81,6.81 12.81,6.81l5.6 0 0 5.3c0,2.6 2.1,4.7 4.71,4.7l30.91 0c2.6,0 4.7,-2.1 4.7,-4.7l0 -6.5 1.6 0c2,0 3.6,-1.6 3.7,-3.6l0 -0.41c0,-2 -1.7,-3.7 -3.7,-3.7l-7.8 0c-2,0 -3.7,1.6 -3.7,3.7l0 0.41c0,2 1.7,3.7 3.7,3.7l2.9 0 0 2.5 -33.52 0 0 -33.52c1.7,-1.1 3.31,-2.1 4.21,-2.8 4.5,-3.5 8.9,-6.3 9.4,-8.8 0.8,-3.3 -1.8,-6 -6.2,-3.8 -1.4,0.7 -4.21,2.3 -7.51,4.1l0 -8.31 33.82 0 0 15.11 -2.9 0c-2,0 -3.7,1.6 -3.7,3.7l0 0.4c0,2 1.6,3.7 3.7,3.7l7.8 0c2,0 3.7,-1.7 3.7,-3.7l0 -0.2c0,-2 -1.6,-3.7 -3.6,-3.7zm-21.81 39.52l0 0c1.3,0 2.3,1.1 2.3,2.3 0,1.2 -1.1,2.3 -2.3,2.3 -1.3,0 -2.3,-1.1 -2.3,-2.3 0,-1.3 1,-2.3 2.3,-2.3zm5 -57.53l0 0 -9.9 0c-0.3,0 -0.6,-0.3 -0.6,-0.6 0,-0.3 0.3,-0.6 0.6,-0.6l9.9 0c0.3,0 0.6,0.3 0.6,0.6 0,0.3 -0.4,0.6 -0.6,0.6z"/>
   <path class="fil1" d="M75.18 429.75l-7.8 0c-2,0 -3.7,1.6 -3.7,3.7l0 0.4c0,2 1.7,3.7 3.7,3.7l7.8 0c2,0 3.7,-1.7 3.7,-3.7l0 -0.4c-0.1,-2 -1.7,-3.7 -3.7,-3.7z"/>
   <path class="fil2" d="M173.8 299.34l0 7.22 -4 0 0 -19.91 7.94 0c2.29,0 4.09,0.58 5.4,1.75 1.31,1.17 1.97,2.7 1.97,4.61 0,1.9 -0.66,3.44 -1.97,4.59 -1.31,1.16 -3.11,1.74 -5.4,1.74l-3.94 0zm0 -3.08l0 0 3.94 0c1.11,0 1.95,-0.3 2.53,-0.91 0.57,-0.6 0.86,-1.38 0.86,-2.31 0,-0.96 -0.29,-1.75 -0.86,-2.38 -0.57,-0.62 -1.41,-0.94 -2.53,-0.94l-3.94 0 0 6.54z"/>
   <polygon class="fil2" points="177.43,303.88 167.43,303.88 167.43,300.88 177.43,300.88 "/>
   <path class="fil3" d="M212.48 301.61l0 5.16 -2.86 0 0 -14.23 5.67 0c1.63,0 2.92,0.42 3.86,1.25 0.94,0.84 1.41,1.93 1.41,3.29 0,1.36 -0.47,2.46 -1.41,3.29 -0.94,0.82 -2.23,1.24 -3.86,1.24l-2.81 0zm0 -2.2l0 0 2.81 0c0.8,0 1.4,-0.22 1.81,-0.65 0.41,-0.43 0.61,-0.99 0.61,-1.66 0,-0.68 -0.2,-1.25 -0.61,-1.69 -0.4,-0.45 -1.01,-0.67 -1.81,-0.67l-2.81 0 0 4.67z"/>
   <polygon class="fil3" points="216.3,304.59 208.29,304.59 208.29,302.59 216.3,302.59 "/>
   <path class="fil4" d="M271.14 297.55l-1.6 -1.4c-0.05,-0.05 -0.11,-0.07 -0.18,-0.07 -0.06,0.01 -0.12,0.04 -0.17,0.09l-5.78 6.58 -2.06 -2.72c-0.04,-0.05 -0.1,-0.09 -0.16,-0.09 -0.07,-0.01 -0.13,0 -0.19,0.04l-1.69 1.28c-0.11,0.08 -0.13,0.24 -0.05,0.35l3.81 5.04c0.05,0.06 0.12,0.09 0.19,0.1 0,0 0.01,0 0.01,0 0.07,0 0.14,-0.03 0.18,-0.09l7.71 -8.77c0.09,-0.1 0.08,-0.25 -0.02,-0.34z"/>
  </g>
 </g>
</svg>
